Coordinates
version=1
nRows=8
nColumns=40
inDegrees=yes

Units are S.I. units (second, meters, Newtons, ...)
If the header above contains a line with 'inDegrees', this indicates whether rotational values are in degrees (yes) or radians (no).

endheader
time	pelvis_tilt	pelvis_list	pelvis_rotation	pelvis_tx	pelvis_ty	pelvis_tz	hip_flexion_r	hip_adduction_r	hip_rotation_r	knee_angle_r	knee_angle_r_beta	ankle_angle_r	subtalar_angle_r	mtp_angle_r	hip_flexion_l	hip_adduction_l	hip_rotation_l	knee_angle_l	knee_angle_l_beta	ankle_angle_l	subtalar_angle_l	mtp_angle_l	lumbar_extension	lumbar_bending	lumbar_rotation	arm_flex_r	arm_add_r	arm_rot_r	elbow_flex_r	pro_sup_r	wrist_flex_r	wrist_dev_r	arm_flex_l	arm_add_l	arm_rot_l	elbow_flex_l	pro_sup_l	wrist_flex_l	wrist_dev_l
      3.07500000	    -28.64314157	      7.08017716	     -4.25743017	     -0.34974255	      0.82615339	     -1.07165610	     30.20573174	     -6.73910262	     14.47305732	     86.26826716	      1.50566530	      6.32867770	      0.00000000	      0.00000000	     69.92923862	      5.24013376	     -5.94350729	     74.82791662	      1.30599352	     22.56542300	      0.00000000	      0.00000000	      4.29194447	    -10.53052185	      7.99112322	     89.97466455	     -3.96791653	      8.72239585	     57.10294582	     11.12252383	      0.00000000	      0.00000000	     89.96789066	    -18.83670910	      3.58268421	     57.75185128	     12.94893655	      0.00000000	      0.00000000
      3.08000000	    -28.60423554	      7.20440033	     -4.27937768	     -0.34952346	      0.82568430	     -1.07190935	     30.16300320	     -6.87488790	     14.52069739	     86.31673561	      1.50651124	      6.40484165	      0.00000000	      0.00000000	     69.92241803	      5.32220475	     -6.04769368	     74.89764699	      1.30721054	     22.63214862	      0.00000000	      0.00000000	      4.22335898	    -10.63408064	      8.01927088	     89.97472060	     -4.03701023	      8.67666476	     56.12715862	     22.57738683	      0.00000000	      0.00000000	     89.96795942	    -18.92106856	      3.61069648	     56.88510340	     23.88010075	      0.00000000	      0.00000000
      3.08500000	    -28.67123734	      7.28634380	     -4.35320080	     -0.34952692	      0.82510857	     -1.07197691	     30.27079756	     -6.94510609	     14.55000991	     86.37386779	      1.50750838	      6.51911250	      0.00000000	      0.00000000	     70.01975480	      5.30030775	     -6.13445929	     74.97291549	      1.30852423	     22.85502911	      0.00000000	      0.00000000	      4.25967922	    -10.69949519	      8.07234138	     89.97466589	     -4.13573010	      8.65735028	     55.96108076	     24.98855644	      0.00000000	      0.00000000	     89.96793197	    -19.02941417	      3.63676144	     56.70862628	     26.27007660	      0.00000000	      0.00000000
      3.09000000	    -28.68956727	      7.30574170	     -4.35513289	     -0.34955839	      0.82462870	     -1.07204144	     30.29065851	     -6.95829397	     14.51096456	     86.43925606	      1.50864962	      6.59364490	      0.00000000	      0.00000000	     70.11246443	      5.31479016	     -6.12632420	     75.09758380	      1.31070010	     22.75647923	      0.00000000	      0.00000000	      4.23439735	    -10.69208273	      8.06686287	     89.97469052	     -4.04018784	      8.58452902	     55.75369963	     26.98494629	      0.00000000	      0.00000000	     89.96800151	    -18.99481053	      3.57001823	     56.53644365	     28.24833658	      0.00000000	      0.00000000
      3.09500000	    -28.65172107	      7.31764861	     -4.40600965	     -0.34957694	      0.82423622	     -1.07211373	     30.26163849	     -6.93223394	     14.53527361	     86.49901138	      1.50969255	      6.70337987	      0.00000000	      0.00000000	     70.13826339	      5.27886219	     -6.18532666	     75.22523469	      1.31292803	     22.85924842	      0.00000000	      0.00000000	      4.13930632	    -10.68443438	      8.08511331	     89.97465566	     -3.95716055	      8.74178367	     57.12926029	     11.01483563	      0.00000000	      0.00000000	     89.96797117	    -18.90240333	      3.55917284	     57.69021004	     14.35180827	      0.00000000	      0.00000000
      3.10000000	    -28.71521495	      7.27004319	     -4.40145050	     -0.34958202	      0.82370651	     -1.07220621	     30.31177478	     -6.87619224	     14.45420463	     86.51859248	      1.51003430	      6.80311736	      0.00000000	      0.00000000	     70.26034521	      5.24842904	     -6.14497255	     75.34786144	      1.31506827	     22.78292169	      0.00000000	      0.00000000	      4.15964198	    -10.59833458	      8.09374372	     89.97467700	     -3.95193312	      8.72435768	     56.63581106	     15.58562019	      0.00000000	      0.00000000	     89.96796969	    -18.94059608	      3.58766960	     57.28801671	     18.43810870	      0.00000000	      0.00000000
      3.10500000	    -28.87004222	      7.21472023	     -4.42744429	     -0.34986269	      0.82292443	     -1.07230183	     30.50460890	     -6.75131087	     14.45745562	     86.64254265	      1.51219764	      6.94787965	      0.00000000	      0.00000000	     70.50611820	      5.19051671	     -6.04253744	     75.49054982	      1.31755865	     22.91799011	      0.00000000	      0.00000000	      4.27040869	    -10.50934937	      8.14079473	     89.97466690	     -4.03920437	      8.75765911	     56.44605927	     18.82813085	      0.00000000	      0.00000000	     89.96798641	    -18.95480543	      3.66179904	     57.10935350	     21.44531683	      0.00000000	      0.00000000
      3.11000000	    -28.98329696	      7.10405733	     -4.44049317	     -0.34998280	      0.82226572	     -1.07235126	     30.61047797	     -6.60258824	     14.36659885	     86.68679959	      1.51297007	      7.02737852	      0.00000000	      0.00000000	     70.70937748	      5.10242382	     -5.93608525	     75.65160380	      1.32036957	     22.73948053	      0.00000000	      0.00000000	      4.34438083	    -10.35068069	      8.10477476	     89.97475050	     -3.96807568	      8.71201598	     56.06832847	     21.92957460	      0.00000000	      0.00000000	     89.96799646	    -19.00548182	      3.50707544	     56.82335289	     24.30227838	      0.00000000	      0.00000000
